{"title":"Tool - AEnima - Custom Remaster by MC Lurken 16-bit 44.1kHz flac","uid":8038829,"size":532942807,"categoryP":"audio","categoryS":"flac","magnet":"?xt=urn:btih:52d7a5ab1d3515e041d598f023d2c7e28f61c311&amp;dn=Tool+-+AEnima+-+Custom+Remaster+by+MC+Lurken+16-bit+44.1kHz+flac&amp;tr=udp%3A%2F%2Ftracker.openbittorrent.com%3A80&amp;tr=udp%3A%2F%2Fopen.demonii.com%3A1337&amp;tr=udp%3A%2F%2Ftracker.coppersurfer.tk%3A6969&amp;tr=udp%3A%2F%2Fexodus.desync.com%3A6969","seeders":1,"leechers":0,"uploader":"beavis39","files":-1,"time":1358577076,"description":"Tool - Ã†nima - Custom Remaster by MC Lurken\n\n\n1 - Stinkfist\n2 - Eulogy\n3 - H.\n4 - Useful Idiot\n5 - Forty Six &amp; 2\n6 - Message to Harry Manback\n7 - Hooker with a Penis\n8 - Intermission\n9 - jimmy\n10 - Die Eier von Satan\n11 - Pushit\n12 - Cesaro Summability\n13 - Ã†nima\n14 - (-) Ions\n15 - Third Eye\n\n\nSetup:\n-HP G72-250US\n-Intel Core i3 M350 2.27GHz\n-8Gb PC3-10700 RAM\n-Win7 64-bit SP1\n-SB X-Fi Surround 5.1\n\n\nProcess:\n-Original 16-bit/44.1kHz files joined in Wavelab 6\n-Remove DC offset and save as 64-bit float/44.1kHz\n-Resample to 384kHz in Wavelab w/crystal resampler ultra(slow) relax background priority\n-Create new 64-bit/384kHz master recording in Wavelab\n\n\nAs reported in Wavelab:\n-Original 16-bit/44.1kHz: Apparent Bit Resolution = 16, Peak = -0.048db\n-With DC Offset Removed: Apparent Bit Resolution = 19, Peak = -0.048db\n-64-bit/384kHz Recording: Apparent Bit Resolution = 39, Peak = 0.802db\n\n\n-Resample new 64-bit/384kHz master recording to 64-bit/44.1kHz in Wavelab w/crystal resampler ultra(slow) relax background priority\n-Apply MBIT+ 16-bit Dither in Wavelab w/Izotope Ozone 5 VST Plugin\n-Flac encode level 0 with Trader's Little Helper\n-Tag and pic with xrecode II\n\n\nfoobar2000 1.2.1 / Dynamic Range Meter 1.1.1\nlog date: 2013-01-17 11:28:40\n\n--------------------------------------------------------------------------------\nAnalyzed: ? / ?\n--------------------------------------------------------------------------------\n\nDR         Peak         RMS     Duration Track\n--------------------------------------------------------------------------------\nDR8        0.00 dB    -9.77 dB      5:11 ?-01 - Stinkfist\nDR8        0.00 dB   -10.64 dB      8:29 ?-02 - Eulogy\nDR7        0.00 dB   -10.91 dB      6:07 ?-03 - H.\nDR15      -2.61 dB   -24.43 dB      0:39 ?-04 - Useful Idiot\nDR7        0.00 dB    -9.71 dB      6:04 ?-05 - Forty Six &amp; 2\nDR18     -10.68 dB   -31.29 dB      1:53 ?-06 - Message to Harry Manback\nDR7        0.00 dB    -8.88 dB      4:34 ?-07 - Hooker with a Penis\nDR12     -11.51 dB   -26.71 dB      0:56 ?-08 - Intermission\nDR7        0.00 dB    -9.50 dB      5:24 ?-09 - jimmy\nDR9       -1.82 dB   -12.58 dB      2:17 ?-10 - Die Eier von Satan\nDR7        0.00 dB   -10.27 dB      9:56 ?-11 - Pushit\nDR12      -0.40 dB   -16.83 dB      1:26 ?-12 - Cesaro Summability\nDR8        0.00 dB    -9.44 dB      6:40 ?-13 - Ã†nima\nDR13      -0.42 dB   -18.67 dB      4:00 ?-14 - (-) Ions\nDR8        0.00 dB   -10.58 dB     13:48 ?-15 - Third Eye\n--------------------------------------------------------------------------------\n\nNumber of tracks:  15\nOfficial DR value: DR10\n\nSamplerate:        44100 Hz\nChannels:          2\nBits per sample:   16\nBitrate:           1411 kbps\nCodec:             PCM\n\n\n\nenjoy :)\n","torrent":{"xt":"urn:btih:52d7a5ab1d3515e041d598f023d2c7e28f61c311","amp;dn":"Tool+-+AEnima+-+Custom+Remaster+by+MC+Lurken+16-bit+44.1kHz+flac","amp;tr":["udp%3A%2F%2Ftracker.openbittorrent.com%3A80","udp%3A%2F%2Fopen.demonii.com%3A1337","udp%3A%2F%2Ftracker.coppersurfer.tk%3A6969","udp%3A%2F%2Fexodus.desync.com%3A6969"],"infoHash":"52d7a5ab1d3515e041d598f023d2c7e28f61c311","infoHashBuffer":{"type":"Buffer","data":[82,215,165,171,29,53,21,224,65,213,152,240,35,210,199,226,143,97,195,17]},"announce":[],"urlList":[]}}